<?xml version="1.0" standalone="no"?><!DOCTYPE svg PUBLIC "-//W3C//DTD SVG 1.1//EN" "http://www.w3.org/Graphics/SVG/1.1/DTD/svg11.dtd"><svg t="1704642419221" class="icon" viewBox="0 0 1024 1024" version="1.1" xmlns="http://www.w3.org/2000/svg" p-id="1670" width="16" height="16" xmlns:xlink="http://www.w3.org/1999/xlink"><path d="M554.666667 298.666667" p-id="1671" fill="#ffffff"></path><path d="M853.333333 341.333333l-256 0c-25.6 0-42.666667-17.066667-42.666667-42.666667L554.666667 42.666667l85.333333 0 0 213.333333 213.333333 0L853.333333 341.333333z" p-id="1672" fill="#ffffff"></path><path d="M853.333333 1024 170.666667 1024c-25.6 0-42.666667-17.066667-42.666667-42.666667L128 42.666667c0-25.6 17.066667-42.666667 42.666667-42.666667l426.666667 0c12.8 0 21.333333 4.266667 29.866667 12.8l256 256C891.733333 277.333333 896 285.866667 896 298.666667l0 682.666667C896 1006.933333 878.933333 1024 853.333333 1024zM213.333333 938.666667l597.333333 0L810.666667 315.733333 580.266667 85.333333 213.333333 85.333333 213.333333 938.666667z" p-id="1673" fill="#ffffff"></path></svg>